<svg width="75" height="38" viewBox="0 0 75 38" fill="none" xmlns="http://www.w3.org/2000/svg">
<g clip-path="url(#clip0_1170_133)">
<path fill-rule="evenodd" clip-rule="evenodd" d="M41.9583 7.39361C42.0447 7.56884 42.1707 7.72159 42.3262 7.83981C42.4838 7.95897 42.6662 8.04119 42.8598 8.0804L48.9627 9.31455C49.2023 9.36116 49.4235 9.47549 49.6001 9.64399C49.7768 9.81248 49.9013 10.0281 49.9592 10.2652C50.0146 10.5013 50.0001 10.7484 49.9175 10.9763C49.8349 11.2043 49.6876 11.4032 49.4938 11.5489L44.7454 15.151C44.5602 15.2897 44.417 15.477 44.3317 15.6921C44.247 15.906 44.2239 16.1393 44.2651 16.3656L45.5462 23.4966C45.5884 23.7343 45.5607 23.9793 45.4665 24.2016C45.3723 24.424 45.2157 24.6143 45.0155 24.7494C44.8131 24.8873 44.5763 24.966 44.3316 24.9767C44.0869 24.9875 43.844 24.9298 43.6303 24.8102L38.1443 21.7271C37.9478 21.6171 37.7263 21.5594 37.501 21.5594C37.2758 21.5594 37.0543 21.6171 36.8577 21.7271L31.3713 24.8102C31.1578 24.9302 30.9149 24.9881 30.6702 24.9773C30.4255 24.9666 30.1887 24.8876 29.9865 24.7494C29.7864 24.6143 29.6297 24.424 29.5355 24.2016C29.4413 23.9793 29.4136 23.7343 29.4558 23.4966L30.737 16.3668C30.7782 16.1405 30.7551 15.9072 30.6703 15.6934C30.5851 15.4783 30.4419 15.291 30.2566 15.1523L25.5082 11.5501C25.3144 11.4045 25.1671 11.2055 25.0845 10.9775C25.0019 10.7496 24.9874 10.5025 25.0428 10.2665C25.1007 10.0294 25.2252 9.81387 25.4018 9.64539C25.5783 9.47691 25.7994 9.36252 26.0389 9.31579L32.1409 8.08165C32.3345 8.04276 32.5168 7.9605 32.6741 7.84106C32.8297 7.72273 32.9558 7.57001 33.0425 7.39486L36.3382 0.729668C36.4473 0.514955 36.6136 0.334619 36.8189 0.208654C37.0241 0.0826898 37.2602 0.0160141 37.501 0.0160141C37.7418 0.0160141 37.9779 0.0826898 38.1832 0.208654C38.3884 0.334619 38.5547 0.514955 38.6638 0.729668L41.9583 7.39361Z" fill="white"/>
<path d="M42.0247 8.23865L42.0237 8.2379C41.8066 8.0729 41.6308 7.85975 41.5101 7.6152L42.0247 8.23865ZM42.0247 8.23865C42.242 8.40299 42.4936 8.51639 42.7606 8.57046L42.7607 8.57048M42.0247 8.23865L42.7607 8.57048M42.7607 8.57048L48.8636 9.80464L48.8672 9.80534M42.7607 8.57048L48.8672 9.80534M48.8672 9.80534C49.013 9.8337 49.1476 9.90326 49.255 10.0058C49.3619 10.1078 49.4375 10.2381 49.4729 10.3816C49.5056 10.5226 49.4967 10.6699 49.4474 10.8059C49.3979 10.9426 49.3096 11.0619 49.1934 11.1492L49.1916 11.1505M48.8672 9.80534L49.1916 11.1505M49.1916 11.1505L44.4457 14.7508M49.1916 11.1505L44.4457 14.7508M44.4457 14.7508C44.4452 14.7511 44.4448 14.7515 44.4443 14.7518L44.4457 14.7508ZM38.218 0.956043L41.5099 7.61479L44.2651 16.3656L43.7729 16.454L43.773 16.4545C43.7731 16.4547 43.7731 16.4549 43.7731 16.4551L45.0539 23.5839C45.0539 23.584 45.054 23.5841 45.054 23.5842C45.0792 23.7267 45.0625 23.8734 45.0061 24.0066C44.9496 24.1399 44.8557 24.254 44.7357 24.3351L44.7341 24.3361C44.6085 24.4217 44.4615 24.4705 44.3097 24.4772C44.1578 24.4839 44.0072 24.4481 43.8746 24.3739C43.8745 24.3739 43.8745 24.3739 43.8745 24.3739L38.3893 21.2913L38.3885 21.2908C38.1173 21.1391 37.8117 21.0594 37.501 21.0594C37.1903 21.0594 36.8847 21.1391 36.6136 21.2908L36.6128 21.2912L31.1264 24.3743C31.1264 24.3743 31.1264 24.3743 31.1264 24.3743C30.9941 24.4486 30.8437 24.4845 30.6921 24.4778C30.5406 24.4712 30.3939 24.4223 30.2687 24.3366L30.2663 24.3351C30.1463 24.254 30.0524 24.1399 29.9959 24.0066C29.9395 23.8734 29.9229 23.7267 29.948 23.5843C29.9481 23.5841 29.9481 23.584 29.9481 23.5839L31.2289 16.4564C31.2289 16.4562 31.2289 16.456 31.229 16.4558C31.2868 16.1377 31.2543 15.8098 31.1352 15.5092L31.1351 15.5091C31.016 15.2087 30.8162 14.947 30.5577 14.7531C30.5572 14.7527 30.5568 14.7524 30.5563 14.752L25.8104 11.1518L25.8086 11.1505C25.6924 11.0631 25.6041 10.9438 25.5546 10.8071C25.5053 10.6712 25.4964 10.5238 25.5291 10.3829C25.5645 10.2395 25.6401 10.1091 25.747 10.0071C25.8544 9.90457 25.9889 9.83497 26.1347 9.80654L26.1347 9.80655L26.138 9.80587L32.2394 8.57186L32.1409 8.08165L32.24 8.57173L32.2399 8.57176C32.5074 8.51795 32.7592 8.40428 32.9765 8.23926L32.9768 8.23902C33.1938 8.07399 33.3696 7.86101 33.4906 7.61673L33.4907 7.61648L36.7851 0.953986C36.8524 0.822503 36.9545 0.712058 37.0804 0.634792C37.2069 0.557127 37.3525 0.516014 37.501 0.516014C37.6495 0.516014 37.7951 0.557127 37.9216 0.634792L38.1822 0.210168L37.9216 0.634793C38.0475 0.712052 38.1496 0.822483 38.2169 0.953951C38.2172 0.954648 38.2176 0.955345 38.218 0.956043Z" stroke="black" stroke-opacity="0.2"/>
</g>
<g clip-path="url(#clip1_1170_133)">
<path fill-rule="evenodd" clip-rule="evenodd" d="M16.9583 20.1725C17.0447 20.3478 17.1707 20.5005 17.3262 20.6187C17.4838 20.7379 17.6662 20.8201 17.8598 20.8593L23.9627 22.0935C24.2023 22.1401 24.4235 22.2544 24.6001 22.4229C24.7768 22.5914 24.9013 22.807 24.9592 23.0442C25.0146 23.2802 25.0001 23.5273 24.9175 23.7552C24.8349 23.9832 24.6876 24.1821 24.4938 24.3278L19.7454 27.9299C19.5602 28.0686 19.417 28.2559 19.3317 28.471C19.247 28.6849 19.2239 28.9182 19.2651 29.1445L20.5462 36.2755C20.5884 36.5133 20.5607 36.7582 20.4665 36.9806C20.3723 37.2029 20.2157 37.3932 20.0155 37.5284C19.8131 37.6662 19.5763 37.7449 19.3316 37.7557C19.0869 37.7664 18.844 37.7087 18.6303 37.5891L13.1443 34.5061C12.9478 34.3961 12.7263 34.3383 12.501 34.3383C12.2758 34.3383 12.0543 34.3961 11.8577 34.5061L6.3713 37.5891C6.15776 37.7091 5.91493 37.767 5.67022 37.7563C5.42552 37.7455 5.1887 37.6666 4.9865 37.5284C4.78636 37.3932 4.6297 37.2029 4.5355 36.9806C4.44131 36.7582 4.41362 36.5133 4.45578 36.2755L5.73696 29.1458C5.77815 28.9195 5.75506 28.6862 5.67035 28.4723C5.58505 28.2572 5.44187 28.0699 5.25663 27.9312L0.508193 24.3291C0.314373 24.1834 0.167148 23.9844 0.0845123 23.7565C0.00187631 23.5285 -0.0125885 23.2814 0.042848 23.0454C0.100689 22.8083 0.225246 22.5928 0.401771 22.4243C0.578295 22.2558 0.799397 22.1415 1.0389 22.0947L7.14092 20.8606C7.33454 20.8217 7.51684 20.7394 7.67412 20.62C7.82968 20.5017 7.95577 20.3489 8.0425 20.1738L11.3382 13.5086C11.4473 13.2939 11.6136 13.1135 11.8189 12.9876C12.0241 12.8616 12.2602 12.7949 12.501 12.7949C12.7418 12.7949 12.9779 12.8616 13.1832 12.9876C13.3884 13.1135 13.5547 13.2939 13.6638 13.5086L16.9583 20.1725Z" fill="white"/>
<path d="M17.0247 21.0176L17.0237 21.0168C16.8066 20.8518 16.6308 20.6387 16.5101 20.3941L17.0247 21.0176ZM17.0247 21.0176C17.242 21.1819 17.4936 21.2953 17.7606 21.3494L17.7607 21.3494M17.0247 21.0176L17.7607 21.3494M17.7607 21.3494L23.8636 22.5836L23.8672 22.5843M17.7607 21.3494L23.8672 22.5843M23.8672 22.5843C24.013 22.6126 24.1476 22.6822 24.255 22.7847C24.3619 22.8867 24.4375 23.0171 24.4729 23.1606C24.5056 23.3015 24.4967 23.4488 24.4474 23.5848C24.3979 23.7215 24.3096 23.8408 24.1934 23.9281L24.1916 23.9295M23.8672 22.5843L24.1916 23.9295M24.1916 23.9295L19.4457 27.5297M24.1916 23.9295L19.4457 27.5297M19.4457 27.5297C19.4452 27.53 19.4448 27.5304 19.4443 27.5307L19.4457 27.5297ZM13.218 13.735L16.5099 20.3937L19.2651 29.1445L18.7729 29.2329L18.773 29.2334C18.7731 29.2336 18.7731 29.2338 18.7731 29.2341L20.0539 36.3628C20.0539 36.3629 20.054 36.363 20.054 36.3631C20.0792 36.5056 20.0625 36.6523 20.0061 36.7855C19.9496 36.9189 19.8557 37.033 19.7357 37.114L19.7341 37.1151C19.6085 37.2006 19.4615 37.2495 19.3097 37.2561C19.1578 37.2628 19.0072 37.227 18.8746 37.1529C18.8745 37.1528 18.8745 37.1528 18.8745 37.1528L13.3893 34.0702L13.3885 34.0697C13.1173 33.918 12.8117 33.8383 12.501 33.8383C12.1903 33.8383 11.8847 33.918 11.6136 34.0697L11.6128 34.0702L6.12638 37.1532C6.12637 37.1532 6.12636 37.1532 6.12635 37.1532C5.99409 37.2275 5.84369 37.2634 5.69214 37.2567C5.54059 37.2501 5.39392 37.2012 5.26867 37.1156L5.26632 37.114C5.1463 37.0329 5.05237 36.9188 4.9959 36.7855C4.93948 36.6523 4.92285 36.5056 4.94803 36.3632C4.94806 36.3631 4.94808 36.3629 4.9481 36.3628L6.22888 29.2353C6.22891 29.2351 6.22895 29.2349 6.22898 29.2347C6.28677 28.9166 6.25427 28.5887 6.1352 28.2882L6.13515 28.288C6.01603 27.9876 5.81621 27.726 5.55769 27.532C5.55723 27.5316 5.55677 27.5313 5.55631 27.531L0.810381 23.9307L0.808616 23.9294C0.692393 23.842 0.604121 23.7227 0.554578 23.5861C0.505283 23.4501 0.496445 23.3027 0.529118 23.1618C0.564533 23.0184 0.640103 22.888 0.746991 22.786C0.854401 22.6835 0.988933 22.6139 1.13466 22.5855L1.13466 22.5855L1.13802 22.5848L7.23939 21.3508L7.14092 20.8606L7.24004 21.3507L7.23988 21.3507C7.50737 21.2969 7.75921 21.1832 7.97651 21.0182L7.97683 21.0179C8.19378 20.8529 8.36962 20.6399 8.49057 20.3957L8.4907 20.3954L11.7851 13.7329C11.8524 13.6014 11.9545 13.491 12.0804 13.4137C12.2069 13.3361 12.3525 13.2949 12.501 13.2949C12.6495 13.2949 12.7951 13.3361 12.9216 13.4137L13.1822 12.9891L12.9216 13.4137C13.0475 13.491 13.1496 13.6014 13.2169 13.7329C13.2172 13.7336 13.2176 13.7343 13.218 13.735Z" stroke="black" stroke-opacity="0.2"/>
</g>
<g clip-path="url(#clip2_1170_133)">
<path fill-rule="evenodd" clip-rule="evenodd" d="M66.9583 20.3936C67.0447 20.5688 67.1707 20.7215 67.3262 20.8398C67.4838 20.9589 67.6662 21.0411 67.8598 21.0804L73.9627 22.3145C74.2023 22.3611 74.4235 22.4754 74.6001 22.6439C74.7768 22.8124 74.9013 23.028 74.9592 23.2652C75.0146 23.5012 75.0001 23.7483 74.9175 23.9763C74.8349 24.2042 74.6876 24.4032 74.4938 24.5489L69.7454 28.151C69.5602 28.2897 69.417 28.477 69.3317 28.6921C69.247 28.9059 69.2239 29.1392 69.2651 29.3655L70.5462 36.4965C70.5884 36.7343 70.5607 36.9792 70.4665 37.2016C70.3723 37.4239 70.2157 37.6142 70.0155 37.7494C69.8131 37.8872 69.5763 37.9659 69.3316 37.9767C69.0869 37.9874 68.844 37.9297 68.6303 37.8101L63.1443 34.7271C62.9478 34.6171 62.7263 34.5593 62.501 34.5593C62.2758 34.5593 62.0543 34.6171 61.8577 34.7271L56.3713 37.8101C56.1578 37.9301 55.9149 37.988 55.6702 37.9773C55.4255 37.9665 55.1887 37.8876 54.9865 37.7494C54.7864 37.6142 54.6297 37.4239 54.5355 37.2016C54.4413 36.9792 54.4136 36.7343 54.4558 36.4965L55.737 29.3668C55.7782 29.1405 55.7551 28.9072 55.6703 28.6933C55.5851 28.4782 55.4419 28.2909 55.2566 28.1522L50.5082 24.5501C50.3144 24.4044 50.1671 24.2055 50.0845 23.9775C50.0019 23.7496 49.9874 23.5025 50.0428 23.2664C50.1007 23.0294 50.2252 22.8138 50.4018 22.6453C50.5783 22.4769 50.7994 22.3625 51.0389 22.3157L57.1409 21.0816C57.3345 21.0427 57.5168 20.9605 57.6741 20.841C57.8297 20.7227 57.9558 20.57 58.0425 20.3948L61.3382 13.7296C61.4473 13.5149 61.6136 13.3346 61.8189 13.2086C62.0241 13.0826 62.2602 13.016 62.501 13.016C62.7418 13.016 62.9779 13.0826 63.1832 13.2086C63.3884 13.3346 63.5547 13.5149 63.6638 13.7296L66.9583 20.3936Z" fill="white"/>
<path d="M67.0247 21.2386L67.0237 21.2379C66.8066 21.0729 66.6308 20.8597 66.5101 20.6152L67.0247 21.2386ZM67.0247 21.2386C67.242 21.4029 67.4936 21.5163 67.7606 21.5704L67.7607 21.5704M67.0247 21.2386L67.7607 21.5704M67.7607 21.5704L73.8636 22.8046L73.8672 22.8053M67.7607 21.5704L73.8672 22.8053M73.8672 22.8053C74.013 22.8337 74.1476 22.9032 74.255 23.0057C74.3619 23.1077 74.4375 23.2381 74.4729 23.3816C74.5056 23.5225 74.4967 23.6699 74.4474 23.8059C74.3979 23.9425 74.3096 24.0618 74.1934 24.1492L74.1916 24.1505M73.8672 22.8053L74.1916 24.1505M74.1916 24.1505L69.4457 27.7507M74.1916 24.1505L69.4457 27.7507M69.4457 27.7507C69.4452 27.7511 69.4448 27.7514 69.4443 27.7518L69.4457 27.7507ZM63.218 13.956L66.5099 20.6147L69.2651 29.3655L68.7729 29.454L68.773 29.4544C68.7731 29.4547 68.7731 29.4549 68.7731 29.4551L70.0539 36.5838C70.0539 36.5839 70.054 36.584 70.054 36.5842C70.0792 36.7266 70.0625 36.8733 70.0061 37.0066C69.9496 37.1399 69.8557 37.254 69.7357 37.335L69.7341 37.3361C69.6085 37.4216 69.4615 37.4705 69.3097 37.4772C69.1578 37.4838 69.0072 37.4481 68.8746 37.3739C68.8745 37.3739 68.8745 37.3738 68.8745 37.3738L63.3893 34.2912L63.3885 34.2908C63.1173 34.139 62.8117 34.0593 62.501 34.0593C62.1903 34.0593 61.8847 34.139 61.6136 34.2908L61.6128 34.2912L56.1264 37.3742C56.1264 37.3742 56.1264 37.3743 56.1264 37.3743C55.9941 37.4486 55.8437 37.4844 55.6921 37.4778C55.5406 37.4711 55.3939 37.4222 55.2687 37.3366L55.2663 37.335C55.1463 37.254 55.0524 37.1399 54.9959 37.0066C54.9395 36.8734 54.9229 36.7267 54.948 36.5842C54.9481 36.5841 54.9481 36.5839 54.9481 36.5838L56.2289 29.4563C56.2289 29.4561 56.2289 29.4559 56.229 29.4558C56.2868 29.1376 56.2543 28.8097 56.1352 28.5092L56.1351 28.509C56.016 28.2086 55.8162 27.947 55.5577 27.753C55.5572 27.7527 55.5568 27.7523 55.5563 27.752L50.8104 24.1517L50.8086 24.1504C50.6924 24.0631 50.6041 23.9438 50.5546 23.8071C50.5053 23.6711 50.4964 23.5238 50.5291 23.3828C50.5645 23.2394 50.6401 23.1091 50.747 23.007C50.8544 22.9045 50.9889 22.8349 51.1347 22.8065L51.1347 22.8065L51.138 22.8058L57.2394 21.5718L57.1409 21.0816L57.24 21.5717L57.2399 21.5717C57.5074 21.5179 57.7592 21.4042 57.9765 21.2392L57.9768 21.239C58.1938 21.0739 58.3696 20.861 58.4906 20.6167L58.4907 20.6164L61.7851 13.9539C61.8524 13.8225 61.9545 13.712 62.0804 13.6347C62.2069 13.5571 62.3525 13.516 62.501 13.516C62.6495 13.516 62.7951 13.5571 62.9216 13.6347L63.1822 13.2101L62.9216 13.6347C63.0475 13.712 63.1496 13.8224 63.2169 13.9539C63.2172 13.9546 63.2176 13.9553 63.218 13.956Z" stroke="black" stroke-opacity="0.2"/>
</g>
<defs>
<clipPath id="clip0_1170_133">
<rect width="25" height="25" fill="white" transform="translate(25)"/>
</clipPath>
<clipPath id="clip1_1170_133">
<rect width="25" height="25" fill="white" transform="translate(0 12.7789)"/>
</clipPath>
<clipPath id="clip2_1170_133">
<rect width="25" height="25" fill="white" transform="translate(50 13)"/>
</clipPath>
</defs>
</svg>
