<svg width="40" height="54" viewBox="0 0 40 54" fill="none" xmlns="http://www.w3.org/2000/svg">
<path d="M6.66667 0H24.31C25.194 0.000188791 26.0417 0.351502 26.6667 0.976667L39.0233 13.3333C39.6485 13.9583 39.9998 14.806 40 15.69V46.6667C40 48.4348 39.2976 50.1305 38.0474 51.3807C36.7971 52.631 35.1014 53.3333 33.3333 53.3333H6.66667C4.89856 53.3333 3.20286 52.631 1.95262 51.3807C0.702379 50.1305 0 48.4348 0 46.6667V6.66667C0 4.89856 0.702379 3.20286 1.95262 1.95262C3.20286 0.702379 4.89856 0 6.66667 0V0ZM25 5V11.6667C25 12.5507 25.3512 13.3986 25.9763 14.0237C26.6014 14.6488 27.4493 15 28.3333 15H35L25 5Z" fill="#27AE60"/>
<path d="M9.42 36.08C9.12 36.08 8.87333 35.9933 8.68 35.82C8.49333 35.64 8.4 35.42 8.4 35.16C8.4 34.8933 8.49333 34.67 8.68 34.49C8.87333 34.31 9.12 34.22 9.42 34.22C9.71333 34.22 9.95333 34.31 10.14 34.49C10.3333 34.67 10.43 34.8933 10.43 35.16C10.43 35.42 10.3333 35.64 10.14 35.82C9.95333 35.9933 9.71333 36.08 9.42 36.08ZM16.2423 36L14.8123 33.85L13.5523 36H11.6123L13.8623 32.43L11.5623 28.98H13.5523L14.9623 31.1L16.2023 28.98H18.1423L15.9123 32.52L18.2323 36H16.2423ZM21.3007 34.68H23.5407V36H19.5907V28.98H21.3007V34.68ZM27.3963 36.07C26.883 36.07 26.423 35.9867 26.0163 35.82C25.6097 35.6533 25.283 35.4067 25.0363 35.08C24.7963 34.7533 24.6697 34.36 24.6563 33.9H26.4763C26.503 34.16 26.593 34.36 26.7463 34.5C26.8997 34.6333 27.0997 34.7 27.3463 34.7C27.5997 34.7 27.7997 34.6433 27.9463 34.53C28.093 34.41 28.1663 34.2467 28.1663 34.04C28.1663 33.8667 28.1063 33.7233 27.9863 33.61C27.873 33.4967 27.7297 33.4033 27.5563 33.33C27.3897 33.2567 27.1497 33.1733 26.8363 33.08C26.383 32.94 26.013 32.8 25.7263 32.66C25.4397 32.52 25.193 32.3133 24.9863 32.04C24.7797 31.7667 24.6763 31.41 24.6763 30.97C24.6763 30.3167 24.913 29.8067 25.3863 29.44C25.8597 29.0667 26.4763 28.88 27.2363 28.88C28.0097 28.88 28.633 29.0667 29.1063 29.44C29.5797 29.8067 29.833 30.32 29.8663 30.98H28.0163C28.003 30.7533 27.9197 30.5767 27.7663 30.45C27.613 30.3167 27.4163 30.25 27.1763 30.25C26.9697 30.25 26.803 30.3067 26.6763 30.42C26.5497 30.5267 26.4863 30.6833 26.4863 30.89C26.4863 31.1167 26.593 31.2933 26.8063 31.42C27.0197 31.5467 27.353 31.6833 27.8063 31.83C28.2597 31.9833 28.6263 32.13 28.9063 32.27C29.193 32.41 29.4397 32.6133 29.6463 32.88C29.853 33.1467 29.9563 33.49 29.9563 33.91C29.9563 34.31 29.853 34.6733 29.6463 35C29.4463 35.3267 29.153 35.5867 28.7663 35.78C28.3797 35.9733 27.923 36.07 27.3963 36.07Z" fill="white"/>
</svg>
