<svg width="32" height="32" viewBox="0 0 32 32" fill="none" xmlns="http://www.w3.org/2000/svg">
<g clip-path="url(#clip0_237_1385)">
<path d="M10.3998 20.8C10.2803 20.8 10.1608 20.8175 10.0468 20.8545C9.39884 21.065 8.71734 21.2 7.99984 21.2C7.28234 21.2 6.60084 21.065 5.95234 20.8545C5.83834 20.8175 5.71934 20.8 5.59984 20.8C2.49684 20.8 -0.0166634 23.324 -0.000163367 26.431C0.00683663 27.744 1.08634 28.8 2.39984 28.8H13.5998C14.9133 28.8 15.9928 27.744 15.9998 26.431C16.0163 23.324 13.5028 20.8 10.3998 20.8ZM7.99984 19.2C10.6508 19.2 12.7998 17.051 12.7998 14.4C12.7998 11.749 10.6508 9.59995 7.99984 9.59995C5.34884 9.59995 3.19984 11.749 3.19984 14.4C3.19984 17.051 5.34884 19.2 7.99984 19.2ZM29.5998 3.19995H10.3998C9.07634 3.19995 7.99984 4.31245 7.99984 5.67945V7.99995C9.17084 7.99995 10.2548 8.33895 11.1998 8.88995V6.39995H28.7998V20.8H25.5998V17.6H19.1998V20.8H15.3878C16.3428 21.6345 17.0438 22.7365 17.3723 24H29.5998C30.9233 24 31.9998 22.8875 31.9998 21.5205V5.67945C31.9998 4.31245 30.9233 3.19995 29.5998 3.19995Z" fill="black"/>
</g>
<defs>
<clipPath id="clip0_237_1385">
<rect width="32" height="32" fill="white"/>
</clipPath>
</defs>
</svg>
