<svg width="48" height="48" viewBox="0 0 48 48" fill="none" xmlns="http://www.w3.org/2000/svg">
<circle cx="24" cy="24" r="24" fill="#EB5757"/>
<path d="M33.8444 13.8224C33.9382 13.8801 34.015 13.9583 34.0682 14.0498C34.1214 14.1414 34.1493 14.2437 34.1495 14.3475V23.8377C34.1494 23.9641 34.1083 24.0875 34.0314 24.1921C33.9545 24.2968 33.8454 24.3778 33.718 24.4248L33.4624 23.8377L33.718 24.4248L33.7139 24.4261L33.7057 24.4299L33.6741 24.4413C33.4934 24.5074 33.3115 24.5707 33.1285 24.6311C32.7658 24.7513 32.2615 24.9133 31.6899 25.074C30.5687 25.3928 29.108 25.7357 27.9662 25.7357C26.8023 25.7357 25.8391 25.3814 25.0009 25.0714L24.9625 25.0588C24.0913 24.7361 23.3493 24.4704 22.4699 24.4704C21.5081 24.4704 20.2192 24.7614 19.1213 25.074C18.6298 25.215 18.1427 25.3691 17.6607 25.5358V33.3279C17.6607 33.4957 17.5883 33.6566 17.4595 33.7753C17.3306 33.8939 17.1559 33.9606 16.9737 33.9606C16.7914 33.9606 16.6167 33.8939 16.4878 33.7753C16.359 33.6566 16.2866 33.4957 16.2866 33.3279V14.3475C16.2866 14.1797 16.359 14.0188 16.4878 13.9002C16.6167 13.7815 16.7914 13.7148 16.9737 13.7148C17.1559 13.7148 17.3306 13.7815 17.4595 13.9002C17.5883 14.0188 17.6607 14.1797 17.6607 14.3475V14.7044C17.9712 14.6044 18.3422 14.4892 18.7462 14.3754C19.8674 14.059 21.3294 13.7148 22.4699 13.7148C23.6241 13.7148 24.564 14.0653 25.3843 14.3716L25.4434 14.3943C26.2981 14.7119 27.0428 14.9802 27.9662 14.9802C28.928 14.9802 30.2169 14.6892 31.3148 14.3766C31.9404 14.1967 32.5587 13.9958 33.1684 13.7743L33.1945 13.7655L33.2 13.7629H33.2014" fill="white"/>
</svg>
