<svg width="241" height="30" viewBox="0 0 241 30" fill="none" xmlns="http://www.w3.org/2000/svg">
<path d="M3.75 0H13.6744C14.1716 0.000106195 14.6484 0.19772 15 0.549375L21.9506 7.5C22.3023 7.85155 22.4999 8.32838 22.5 8.82562V26.25C22.5 27.2446 22.1049 28.1984 21.4016 28.9016C20.6984 29.6049 19.7446 30 18.75 30H3.75C2.75544 30 1.80161 29.6049 1.09835 28.9016C0.395088 28.1984 0 27.2446 0 26.25V3.75C0 2.75544 0.395088 1.80161 1.09835 1.09835C1.80161 0.395088 2.75544 0 3.75 0V0ZM14.0625 2.8125V6.5625C14.0625 7.05978 14.26 7.53669 14.6117 7.88832C14.9633 8.23996 15.4402 8.4375 15.9375 8.4375H19.6875L14.0625 2.8125Z" fill="#F1351B"/>
<path d="M5.21 22.2275C5.06 22.2275 4.93667 22.1842 4.84 22.0975C4.74667 22.0075 4.7 21.8975 4.7 21.7675C4.7 21.6342 4.74667 21.5225 4.84 21.4325C4.93667 21.3425 5.06 21.2975 5.21 21.2975C5.35667 21.2975 5.47667 21.3425 5.57 21.4325C5.66667 21.5225 5.715 21.6342 5.715 21.7675C5.715 21.8975 5.66667 22.0075 5.57 22.0975C5.47667 22.1842 5.35667 22.2275 5.21 22.2275ZM9.39613 19.8075C9.39613 20.0108 9.34947 20.1975 9.25613 20.3675C9.1628 20.5342 9.01947 20.6692 8.82613 20.7725C8.6328 20.8758 8.3928 20.9275 8.10613 20.9275H7.57613V22.1875H6.72113V18.6775H8.10613C8.38613 18.6775 8.6228 18.7258 8.81613 18.8225C9.00947 18.9192 9.15447 19.0525 9.25113 19.2225C9.3478 19.3925 9.39613 19.5875 9.39613 19.8075ZM8.04113 20.2475C8.20447 20.2475 8.32613 20.2092 8.40613 20.1325C8.48613 20.0558 8.52613 19.9475 8.52613 19.8075C8.52613 19.6675 8.48613 19.5592 8.40613 19.4825C8.32613 19.4058 8.20447 19.3675 8.04113 19.3675H7.57613V20.2475H8.04113ZM11.6563 18.6775C12.0263 18.6775 12.3496 18.7508 12.6263 18.8975C12.9029 19.0442 13.1163 19.2508 13.2663 19.5175C13.4196 19.7808 13.4963 20.0858 13.4963 20.4325C13.4963 20.7758 13.4196 21.0808 13.2663 21.3475C13.1163 21.6142 12.9013 21.8208 12.6213 21.9675C12.3446 22.1142 12.0229 22.1875 11.6563 22.1875H10.3413V18.6775H11.6563ZM11.6013 21.4475C11.9246 21.4475 12.1763 21.3592 12.3563 21.1825C12.5363 21.0058 12.6263 20.7558 12.6263 20.4325C12.6263 20.1092 12.5363 19.8575 12.3563 19.6775C12.1763 19.4975 11.9246 19.4075 11.6013 19.4075H11.1963V21.4475H11.6013ZM16.7591 18.6775V19.3625H15.3291V20.1025H16.3991V20.7675H15.3291V22.1875H14.4741V18.6775H16.7591Z" fill="white"/>
<path d="M37.332 9.88C38.516 9.88 39.5507 10.1093 40.436 10.568C41.332 11.016 42.02 11.6667 42.5 12.52C42.9907 13.3627 43.236 14.3493 43.236 15.48C43.236 16.6107 42.9907 17.592 42.5 18.424C42.02 19.256 41.332 19.896 40.436 20.344C39.5507 20.7813 38.516 21 37.332 21H33.7V9.88H37.332ZM37.332 19.512C38.6333 19.512 39.6307 19.16 40.324 18.456C41.0173 17.752 41.364 16.76 41.364 15.48C41.364 14.1893 41.0173 13.1813 40.324 12.456C39.6307 11.7307 38.6333 11.368 37.332 11.368H35.524V19.512H37.332ZM44.7358 16.552C44.7358 15.6667 44.9171 14.8827 45.2798 14.2C45.6531 13.5173 46.1544 12.9893 46.7838 12.616C47.4238 12.232 48.1278 12.04 48.8958 12.04C49.5891 12.04 50.1918 12.1787 50.7038 12.456C51.2264 12.7227 51.6424 13.0587 51.9518 13.464V12.184H53.7918V21H51.9518V19.688C51.6424 20.104 51.2211 20.4507 50.6878 20.728C50.1544 21.0053 49.5464 21.144 48.8638 21.144C48.1064 21.144 47.4131 20.952 46.7838 20.568C46.1544 20.1733 45.6531 19.6293 45.2798 18.936C44.9171 18.232 44.7358 17.4373 44.7358 16.552ZM51.9518 16.584C51.9518 15.976 51.8238 15.448 51.5678 15C51.3224 14.552 50.9971 14.2107 50.5918 13.976C50.1864 13.7413 49.7491 13.624 49.2798 13.624C48.8104 13.624 48.3731 13.7413 47.9678 13.976C47.5624 14.2 47.2318 14.536 46.9758 14.984C46.7304 15.4213 46.6078 15.944 46.6078 16.552C46.6078 17.16 46.7304 17.6933 46.9758 18.152C47.2318 18.6107 47.5624 18.9627 47.9678 19.208C48.3838 19.4427 48.8211 19.56 49.2798 19.56C49.7491 19.56 50.1864 19.4427 50.5918 19.208C50.9971 18.9733 51.3224 18.632 51.5678 18.184C51.8238 17.7253 51.9518 17.192 51.9518 16.584ZM58.6155 13.672V18.552C58.6155 18.8827 58.6902 19.1227 58.8395 19.272C58.9995 19.4107 59.2662 19.48 59.6395 19.48H60.7595V21H59.3195C58.4982 21 57.8688 20.808 57.4315 20.424C56.9942 20.04 56.7755 19.416 56.7755 18.552V13.672H55.7355V12.184H56.7755V9.992H58.6155V12.184H60.7595V13.672H58.6155ZM62.1326 16.552C62.1326 15.6667 62.314 14.8827 62.6766 14.2C63.05 13.5173 63.5513 12.9893 64.1806 12.616C64.8206 12.232 65.5246 12.04 66.2926 12.04C66.986 12.04 67.5886 12.1787 68.1006 12.456C68.6233 12.7227 69.0393 13.0587 69.3486 13.464V12.184H71.1886V21H69.3486V19.688C69.0393 20.104 68.618 20.4507 68.0846 20.728C67.5513 21.0053 66.9433 21.144 66.2606 21.144C65.5033 21.144 64.81 20.952 64.1806 20.568C63.5513 20.1733 63.05 19.6293 62.6766 18.936C62.314 18.232 62.1326 17.4373 62.1326 16.552ZM69.3486 16.584C69.3486 15.976 69.2206 15.448 68.9646 15C68.7193 14.552 68.394 14.2107 67.9886 13.976C67.5833 13.7413 67.146 13.624 66.6766 13.624C66.2073 13.624 65.77 13.7413 65.3646 13.976C64.9593 14.2 64.6286 14.536 64.3726 14.984C64.1273 15.4213 64.0046 15.944 64.0046 16.552C64.0046 17.16 64.1273 17.6933 64.3726 18.152C64.6286 18.6107 64.9593 18.9627 65.3646 19.208C65.7806 19.4427 66.218 19.56 66.6766 19.56C67.146 19.56 67.5833 19.4427 67.9886 19.208C68.394 18.9733 68.7193 18.632 68.9646 18.184C69.2206 17.7253 69.3486 17.192 69.3486 16.584ZM75.7084 13.496C76.0177 13.0693 76.439 12.7227 76.9724 12.456C77.5164 12.1787 78.119 12.04 78.7804 12.04C79.559 12.04 80.263 12.2267 80.8924 12.6C81.5217 12.9733 82.0177 13.5067 82.3804 14.2C82.743 14.8827 82.9244 15.6667 82.9244 16.552C82.9244 17.4373 82.743 18.232 82.3804 18.936C82.0177 19.6293 81.5164 20.1733 80.8764 20.568C80.247 20.952 79.5484 21.144 78.7804 21.144C78.0977 21.144 77.4897 21.0107 76.9564 20.744C76.4337 20.4773 76.0177 20.136 75.7084 19.72V21H73.8844V9.16H75.7084V13.496ZM81.0684 16.552C81.0684 15.944 80.9404 15.4213 80.6844 14.984C80.439 14.536 80.1084 14.2 79.6924 13.976C79.287 13.7413 78.8497 13.624 78.3804 13.624C77.9217 13.624 77.4844 13.7413 77.0684 13.976C76.663 14.2107 76.3324 14.552 76.0764 15C75.831 15.448 75.7084 15.976 75.7084 16.584C75.7084 17.192 75.831 17.7253 76.0764 18.184C76.3324 18.632 76.663 18.9733 77.0684 19.208C77.4844 19.4427 77.9217 19.56 78.3804 19.56C78.8497 19.56 79.287 19.4427 79.6924 19.208C80.1084 18.9627 80.439 18.6107 80.6844 18.152C80.9404 17.6933 81.0684 17.16 81.0684 16.552ZM84.4201 16.552C84.4201 15.6667 84.6015 14.8827 84.9641 14.2C85.3375 13.5173 85.8388 12.9893 86.4681 12.616C87.1081 12.232 87.8121 12.04 88.5801 12.04C89.2735 12.04 89.8761 12.1787 90.3881 12.456C90.9108 12.7227 91.3268 13.0587 91.6361 13.464V12.184H93.4761V21H91.6361V19.688C91.3268 20.104 90.9055 20.4507 90.3721 20.728C89.8388 21.0053 89.2308 21.144 88.5481 21.144C87.7908 21.144 87.0975 20.952 86.4681 20.568C85.8388 20.1733 85.3375 19.6293 84.9641 18.936C84.6015 18.232 84.4201 17.4373 84.4201 16.552ZM91.6361 16.584C91.6361 15.976 91.5081 15.448 91.2521 15C91.0068 14.552 90.6815 14.2107 90.2761 13.976C89.8708 13.7413 89.4335 13.624 88.9641 13.624C88.4948 13.624 88.0575 13.7413 87.6521 13.976C87.2468 14.2 86.9161 14.536 86.6601 14.984C86.4148 15.4213 86.2921 15.944 86.2921 16.552C86.2921 17.16 86.4148 17.6933 86.6601 18.152C86.9161 18.6107 87.2468 18.9627 87.6521 19.208C88.0681 19.4427 88.5055 19.56 88.9641 19.56C89.4335 19.56 89.8708 19.4427 90.2761 19.208C90.6815 18.9733 91.0068 18.632 91.2521 18.184C91.5081 17.7253 91.6361 17.192 91.6361 16.584ZM99.3719 21.144C98.6785 21.144 98.0545 21.0213 97.4999 20.776C96.9559 20.52 96.5239 20.1787 96.2039 19.752C95.8839 19.3147 95.7132 18.8293 95.6919 18.296H97.5799C97.6119 18.6693 97.7879 18.984 98.1079 19.24C98.4385 19.4853 98.8492 19.608 99.3399 19.608C99.8519 19.608 100.247 19.512 100.524 19.32C100.812 19.1173 100.956 18.8613 100.956 18.552C100.956 18.2213 100.796 17.976 100.476 17.816C100.167 17.656 99.6705 17.48 98.9879 17.288C98.3265 17.1067 97.7879 16.9307 97.3719 16.76C96.9559 16.5893 96.5932 16.328 96.2839 15.976C95.9852 15.624 95.8359 15.16 95.8359 14.584C95.8359 14.1147 95.9745 13.688 96.2519 13.304C96.5292 12.9093 96.9239 12.6 97.4359 12.376C97.9585 12.152 98.5559 12.04 99.2279 12.04C100.231 12.04 101.036 12.296 101.644 12.808C102.263 13.3093 102.593 13.9973 102.636 14.872H100.812C100.78 14.4773 100.62 14.1627 100.332 13.928C100.044 13.6933 99.6545 13.576 99.1639 13.576C98.6839 13.576 98.3159 13.6667 98.0599 13.848C97.8039 14.0293 97.6759 14.2693 97.6759 14.568C97.6759 14.8027 97.7612 15 97.9319 15.16C98.1025 15.32 98.3105 15.448 98.5559 15.544C98.8012 15.6293 99.1639 15.7413 99.6439 15.88C100.284 16.0507 100.807 16.2267 101.212 16.408C101.628 16.5787 101.985 16.8347 102.284 17.176C102.583 17.5173 102.737 17.9707 102.748 18.536C102.748 19.0373 102.609 19.4853 102.332 19.88C102.055 20.2747 101.66 20.584 101.148 20.808C100.647 21.032 100.055 21.144 99.3719 21.144ZM113.099 16.376C113.099 16.7067 113.077 17.0053 113.035 17.272H106.299C106.352 17.976 106.613 18.5413 107.083 18.968C107.552 19.3947 108.128 19.608 108.811 19.608C109.792 19.608 110.485 19.1973 110.891 18.376H112.859C112.592 19.1867 112.107 19.8533 111.403 20.376C110.709 20.888 109.845 21.144 108.811 21.144C107.968 21.144 107.211 20.9573 106.539 20.584C105.877 20.2 105.355 19.6667 104.971 18.984C104.597 18.2907 104.411 17.4907 104.411 16.584C104.411 15.6773 104.592 14.8827 104.955 14.2C105.328 13.5067 105.845 12.9733 106.507 12.6C107.179 12.2267 107.947 12.04 108.811 12.04C109.643 12.04 110.384 12.2213 111.035 12.584C111.685 12.9467 112.192 13.4587 112.555 14.12C112.917 14.7707 113.099 15.5227 113.099 16.376ZM111.195 15.8C111.184 15.128 110.944 14.5893 110.475 14.184C110.005 13.7787 109.424 13.576 108.731 13.576C108.101 13.576 107.563 13.7787 107.115 14.184C106.667 14.5787 106.4 15.1173 106.315 15.8H111.195ZM121.962 14.44V15.976H115.386V14.44H121.962ZM136.565 9.88V21H134.741V13.384L131.349 21H130.085L126.677 13.384V21H124.853V9.88H126.821L130.725 18.6L134.613 9.88H136.565ZM147.199 12.184L141.791 25.144H139.903L141.695 20.856L138.223 12.184H140.255L142.735 18.904L145.311 12.184H147.199ZM152.539 21.112C151.792 21.112 151.12 20.984 150.523 20.728C149.926 20.4613 149.456 20.088 149.115 19.608C148.774 19.128 148.603 18.568 148.603 17.928H150.555C150.598 18.408 150.784 18.8027 151.115 19.112C151.456 19.4213 151.931 19.576 152.539 19.576C153.168 19.576 153.659 19.4267 154.011 19.128C154.363 18.8187 154.539 18.424 154.539 17.944C154.539 17.5707 154.427 17.2667 154.203 17.032C153.99 16.7973 153.718 16.616 153.387 16.488C153.067 16.36 152.619 16.2213 152.043 16.072C151.318 15.88 150.726 15.688 150.267 15.496C149.819 15.2933 149.435 14.984 149.115 14.568C148.795 14.152 148.635 13.5973 148.635 12.904C148.635 12.264 148.795 11.704 149.115 11.224C149.435 10.744 149.883 10.376 150.459 10.12C151.035 9.864 151.702 9.736 152.459 9.736C153.536 9.736 154.416 10.008 155.099 10.552C155.792 11.0853 156.176 11.8213 156.251 12.76H154.235C154.203 12.3547 154.011 12.008 153.659 11.72C153.307 11.432 152.843 11.288 152.267 11.288C151.744 11.288 151.318 11.4213 150.987 11.688C150.656 11.9547 150.491 12.3387 150.491 12.84C150.491 13.1813 150.592 13.464 150.795 13.688C151.008 13.9013 151.275 14.072 151.595 14.2C151.915 14.328 152.352 14.4667 152.907 14.616C153.643 14.8187 154.24 15.0213 154.699 15.224C155.168 15.4267 155.563 15.7413 155.883 16.168C156.214 16.584 156.379 17.144 156.379 17.848C156.379 18.4133 156.224 18.9467 155.915 19.448C155.616 19.9493 155.174 20.3547 154.587 20.664C154.011 20.9627 153.328 21.112 152.539 21.112ZM167.439 23.016L165.487 20.904C165.007 21.0427 164.479 21.112 163.903 21.112C162.869 21.112 161.914 20.872 161.039 20.392C160.175 19.9013 159.487 19.224 158.975 18.36C158.474 17.4853 158.223 16.504 158.223 15.416C158.223 14.328 158.474 13.352 158.975 12.488C159.487 11.624 160.175 10.952 161.039 10.472C161.914 9.98133 162.869 9.736 163.903 9.736C164.949 9.736 165.903 9.98133 166.767 10.472C167.642 10.952 168.33 11.624 168.831 12.488C169.333 13.352 169.583 14.328 169.583 15.416C169.583 16.44 169.359 17.368 168.911 18.2C168.474 19.0213 167.866 19.6827 167.087 20.184L169.759 23.016H167.439ZM160.095 15.416C160.095 16.2373 160.255 16.9627 160.575 17.592C160.906 18.2107 161.359 18.6907 161.935 19.032C162.511 19.3627 163.167 19.528 163.903 19.528C164.639 19.528 165.295 19.3627 165.871 19.032C166.447 18.6907 166.895 18.2107 167.215 17.592C167.546 16.9627 167.711 16.2373 167.711 15.416C167.711 14.5947 167.546 13.8747 167.215 13.256C166.895 12.6373 166.447 12.1627 165.871 11.832C165.295 11.5013 164.639 11.336 163.903 11.336C163.167 11.336 162.511 11.5013 161.935 11.832C161.359 12.1627 160.906 12.6373 160.575 13.256C160.255 13.8747 160.095 14.5947 160.095 15.416ZM173.549 19.528H177.309V21H171.725V9.88H173.549V19.528ZM179.87 21.112C179.54 21.112 179.262 21 179.038 20.776C178.814 20.552 178.702 20.2747 178.702 19.944C178.702 19.6133 178.814 19.336 179.038 19.112C179.262 18.888 179.54 18.776 179.87 18.776C180.19 18.776 180.462 18.888 180.686 19.112C180.91 19.336 181.022 19.6133 181.022 19.944C181.022 20.2747 180.91 20.552 180.686 20.776C180.462 21 180.19 21.112 179.87 21.112ZM185.118 13.48C185.427 13.0747 185.848 12.7333 186.382 12.456C186.915 12.1787 187.518 12.04 188.19 12.04C188.958 12.04 189.656 12.232 190.286 12.616C190.926 12.9893 191.427 13.5173 191.79 14.2C192.152 14.8827 192.334 15.6667 192.334 16.552C192.334 17.4373 192.152 18.232 191.79 18.936C191.427 19.6293 190.926 20.1733 190.286 20.568C189.656 20.952 188.958 21.144 188.19 21.144C187.518 21.144 186.92 21.0107 186.398 20.744C185.875 20.4667 185.448 20.1253 185.118 19.72V25.192H183.294V12.184H185.118V13.48ZM190.478 16.552C190.478 15.944 190.35 15.4213 190.094 14.984C189.848 14.536 189.518 14.2 189.102 13.976C188.696 13.7413 188.259 13.624 187.79 13.624C187.331 13.624 186.894 13.7413 186.478 13.976C186.072 14.2107 185.742 14.552 185.486 15C185.24 15.448 185.118 15.976 185.118 16.584C185.118 17.192 185.24 17.7253 185.486 18.184C185.742 18.632 186.072 18.9733 186.478 19.208C186.894 19.4427 187.331 19.56 187.79 19.56C188.259 19.56 188.696 19.4427 189.102 19.208C189.518 18.9627 189.848 18.6107 190.094 18.152C190.35 17.6933 190.478 17.16 190.478 16.552ZM193.83 16.552C193.83 15.6667 194.011 14.8827 194.374 14.2C194.747 13.5173 195.248 12.9893 195.878 12.616C196.518 12.232 197.227 12.04 198.006 12.04C198.582 12.04 199.147 12.168 199.702 12.424C200.267 12.6693 200.715 13 201.046 13.416V9.16H202.886V21H201.046V19.672C200.747 20.0987 200.331 20.4507 199.798 20.728C199.275 21.0053 198.672 21.144 197.99 21.144C197.222 21.144 196.518 20.952 195.878 20.568C195.248 20.1733 194.747 19.6293 194.374 18.936C194.011 18.232 193.83 17.4373 193.83 16.552ZM201.046 16.584C201.046 15.976 200.918 15.448 200.662 15C200.416 14.552 200.091 14.2107 199.686 13.976C199.28 13.7413 198.843 13.624 198.374 13.624C197.904 13.624 197.467 13.7413 197.062 13.976C196.656 14.2 196.326 14.536 196.07 14.984C195.824 15.4213 195.702 15.944 195.702 16.552C195.702 17.16 195.824 17.6933 196.07 18.152C196.326 18.6107 196.656 18.9627 197.062 19.208C197.478 19.4427 197.915 19.56 198.374 19.56C198.843 19.56 199.28 19.4427 199.686 19.208C200.091 18.9733 200.416 18.632 200.662 18.184C200.918 17.7253 201.046 17.192 201.046 16.584ZM209.277 13.672H207.645V21H205.805V13.672H204.765V12.184H205.805V11.56C205.805 10.5467 206.072 9.81067 206.605 9.352C207.149 8.88267 207.997 8.648 209.149 8.648V10.168C208.595 10.168 208.205 10.2747 207.981 10.488C207.757 10.6907 207.645 11.048 207.645 11.56V12.184H209.277V13.672Z" fill="#2B2D42"/>
</svg>
