<svg width="40" height="54" viewBox="0 0 40 54" fill="none" xmlns="http://www.w3.org/2000/svg">
<path d="M6.66667 0H24.31C25.194 0.000188791 26.0417 0.351502 26.6667 0.976667L39.0233 13.3333C39.6485 13.9583 39.9998 14.806 40 15.69V46.6667C40 48.4348 39.2976 50.1305 38.0474 51.3807C36.7971 52.631 35.1014 53.3333 33.3333 53.3333H6.66667C4.89856 53.3333 3.20286 52.631 1.95262 51.3807C0.702379 50.1305 0 48.4348 0 46.6667V6.66667C0 4.89856 0.702379 3.20286 1.95262 1.95262C3.20286 0.702379 4.89856 0 6.66667 0V0ZM25 5V11.6667C25 12.5507 25.3512 13.3986 25.9763 14.0237C26.6014 14.6488 27.4493 15 28.3333 15H35L25 5Z" fill="#F1351B"/>
<path d="M9.42 36.08C9.12 36.08 8.87333 35.9933 8.68 35.82C8.49333 35.64 8.4 35.42 8.4 35.16C8.4 34.8933 8.49333 34.67 8.68 34.49C8.87333 34.31 9.12 34.22 9.42 34.22C9.71333 34.22 9.95333 34.31 10.14 34.49C10.3333 34.67 10.43 34.8933 10.43 35.16C10.43 35.42 10.3333 35.64 10.14 35.82C9.95333 35.9933 9.71333 36.08 9.42 36.08ZM17.2923 31.24C17.2923 31.6467 17.1989 32.02 17.0123 32.36C16.8256 32.6933 16.5389 32.9633 16.1523 33.17C15.7656 33.3767 15.2856 33.48 14.7123 33.48H13.6523V36H11.9423V28.98H14.7123C15.2723 28.98 15.7456 29.0767 16.1323 29.27C16.5189 29.4633 16.8089 29.73 17.0023 30.07C17.1956 30.41 17.2923 30.8 17.2923 31.24ZM14.5823 32.12C14.9089 32.12 15.1523 32.0433 15.3123 31.89C15.4723 31.7367 15.5523 31.52 15.5523 31.24C15.5523 30.96 15.4723 30.7433 15.3123 30.59C15.1523 30.4367 14.9089 30.36 14.5823 30.36H13.6523V32.12H14.5823ZM21.3125 28.98C22.0525 28.98 22.6992 29.1267 23.2525 29.42C23.8058 29.7133 24.2325 30.1267 24.5325 30.66C24.8392 31.1867 24.9925 31.7967 24.9925 32.49C24.9925 33.1767 24.8392 33.7867 24.5325 34.32C24.2325 34.8533 23.8025 35.2667 23.2425 35.56C22.6892 35.8533 22.0458 36 21.3125 36H18.6825V28.98H21.3125ZM21.2025 34.52C21.8492 34.52 22.3525 34.3433 22.7125 33.99C23.0725 33.6367 23.2525 33.1367 23.2525 32.49C23.2525 31.8433 23.0725 31.34 22.7125 30.98C22.3525 30.62 21.8492 30.44 21.2025 30.44H20.3925V34.52H21.2025ZM31.0181 28.98V30.35H28.1581V31.83H30.2981V33.16H28.1581V36H26.4481V28.98H31.0181Z" fill="white"/>
</svg>
