<svg width="32" height="33" viewBox="0 0 32 33" fill="none" xmlns="http://www.w3.org/2000/svg">
<circle cx="16" cy="16.5" r="16" fill="#DEDEDE"/>
<path d="M10.918 21.186C12.442 19.962 13.636 18.96 14.5 18.18C15.364 17.388 16.09 16.566 16.678 15.714C17.278 14.85 17.578 14.004 17.578 13.176C17.578 12.396 17.386 11.784 17.002 11.34C16.63 10.884 16.024 10.656 15.184 10.656C14.368 10.656 13.732 10.914 13.276 11.43C12.832 11.934 12.592 12.612 12.556 13.464H10.972C11.02 12.12 11.428 11.082 12.196 10.35C12.964 9.618 13.954 9.252 15.166 9.252C16.402 9.252 17.38 9.594 18.1 10.278C18.832 10.962 19.198 11.904 19.198 13.104C19.198 14.1 18.898 15.072 18.298 16.02C17.71 16.956 17.038 17.784 16.282 18.504C15.526 19.212 14.56 20.04 13.384 20.988H19.576V22.356H10.918V21.186Z" fill="#2B2D42"/>
</svg>
