<svg width="40" height="54" viewBox="0 0 40 54" fill="none" xmlns="http://www.w3.org/2000/svg">
<path d="M6.66667 0.666672H24.31C25.194 0.666861 26.0417 1.01817 26.6667 1.64334L39.0233 14C39.6485 14.625 39.9998 15.4727 40 16.3567V47.3333C40 49.1015 39.2976 50.7971 38.0474 52.0474C36.7971 53.2976 35.1014 54 33.3333 54H6.66667C4.89856 54 3.20286 53.2976 1.95262 52.0474C0.702379 50.7971 0 49.1015 0 47.3333V7.33334C0 5.56523 0.702379 3.86954 1.95262 2.61929C3.20286 1.36905 4.89856 0.666672 6.66667 0.666672V0.666672ZM25 5.66667V12.3333C25 13.2174 25.3512 14.0652 25.9763 14.6904C26.6014 15.3155 27.4493 15.6667 28.3333 15.6667H35L25 5.66667Z" fill="#1294F2"/>
<path d="M7.42 36.7467C7.12 36.7467 6.87333 36.66 6.68 36.4867C6.49333 36.3067 6.4 36.0867 6.4 35.8267C6.4 35.56 6.49333 35.3367 6.68 35.1567C6.87333 34.9767 7.12 34.8867 7.42 34.8867C7.71333 34.8867 7.95333 34.9767 8.14 35.1567C8.33333 35.3367 8.43 35.56 8.43 35.8267C8.43 36.0867 8.33333 36.3067 8.14 36.4867C7.95333 36.66 7.71333 36.7467 7.42 36.7467ZM12.5723 29.6467C13.3123 29.6467 13.9589 29.7933 14.5123 30.0867C15.0656 30.38 15.4923 30.7933 15.7923 31.3267C16.0989 31.8533 16.2523 32.4633 16.2523 33.1567C16.2523 33.8433 16.0989 34.4533 15.7923 34.9867C15.4923 35.52 15.0623 35.9333 14.5023 36.2267C13.9489 36.52 13.3056 36.6667 12.5723 36.6667H9.94227V29.6467H12.5723ZM12.4623 35.1867C13.1089 35.1867 13.6123 35.01 13.9723 34.6567C14.3323 34.3033 14.5123 33.8033 14.5123 33.1567C14.5123 32.51 14.3323 32.0067 13.9723 31.6467C13.6123 31.2867 13.1089 31.1067 12.4623 31.1067H11.6523V35.1867H12.4623ZM21.0279 36.7367C20.3679 36.7367 19.7612 36.5833 19.2079 36.2767C18.6612 35.97 18.2246 35.5433 17.8979 34.9967C17.5779 34.4433 17.4179 33.8233 17.4179 33.1367C17.4179 32.45 17.5779 31.8333 17.8979 31.2867C18.2246 30.74 18.6612 30.3133 19.2079 30.0067C19.7612 29.7 20.3679 29.5467 21.0279 29.5467C21.6879 29.5467 22.2912 29.7 22.8379 30.0067C23.3912 30.3133 23.8246 30.74 24.1379 31.2867C24.4579 31.8333 24.6179 32.45 24.6179 33.1367C24.6179 33.8233 24.4579 34.4433 24.1379 34.9967C23.8179 35.5433 23.3846 35.97 22.8379 36.2767C22.2912 36.5833 21.6879 36.7367 21.0279 36.7367ZM21.0279 35.1767C21.5879 35.1767 22.0346 34.99 22.3679 34.6167C22.7079 34.2433 22.8779 33.75 22.8779 33.1367C22.8779 32.5167 22.7079 32.0233 22.3679 31.6567C22.0346 31.2833 21.5879 31.0967 21.0279 31.0967C20.4612 31.0967 20.0079 31.28 19.6679 31.6467C19.3346 32.0133 19.1679 32.51 19.1679 33.1367C19.1679 33.7567 19.3346 34.2533 19.6679 34.6267C20.0079 34.9933 20.4612 35.1767 21.0279 35.1767ZM25.7792 33.1467C25.7792 32.4533 25.9292 31.8367 26.2292 31.2967C26.5292 30.75 26.9459 30.3267 27.4792 30.0267C28.0192 29.72 28.6292 29.5667 29.3092 29.5667C30.1426 29.5667 30.8559 29.7867 31.4492 30.2267C32.0426 30.6667 32.4392 31.2667 32.6392 32.0267H30.7592C30.6192 31.7333 30.4192 31.51 30.1592 31.3567C29.9059 31.2033 29.6159 31.1267 29.2892 31.1267C28.7626 31.1267 28.3359 31.31 28.0092 31.6767C27.6826 32.0433 27.5192 32.5333 27.5192 33.1467C27.5192 33.76 27.6826 34.25 28.0092 34.6167C28.3359 34.9833 28.7626 35.1667 29.2892 35.1667C29.6159 35.1667 29.9059 35.09 30.1592 34.9367C30.4192 34.7833 30.6192 34.56 30.7592 34.2667H32.6392C32.4392 35.0267 32.0426 35.6267 31.4492 36.0667C30.8559 36.5 30.1426 36.7167 29.3092 36.7167C28.6292 36.7167 28.0192 36.5667 27.4792 36.2667C26.9459 35.96 26.5292 35.5367 26.2292 34.9967C25.9292 34.4567 25.7792 33.84 25.7792 33.1467Z" fill="white"/>
</svg>
