<svg width="43" height="43" viewBox="0 0 43 43" fill="none" xmlns="http://www.w3.org/2000/svg">
<path d="M40 21.5C40 23.9294 39.5215 26.3351 38.5918 28.5796C37.6621 30.8241 36.2994 32.8635 34.5815 34.5814C32.8636 36.2993 30.8242 37.662 28.5796 38.5917C26.3351 39.5214 23.9295 40 21.5 39.9999C19.0705 39.9999 16.6649 39.5214 14.4204 38.5917C12.1758 37.662 10.1364 36.2993 8.41852 34.5814C6.70064 32.8635 5.33794 30.8241 4.40823 28.5796C3.47852 26.3351 3 23.9294 3 21.4999C3 19.0705 3.47852 16.6648 4.40823 14.4203C5.33795 12.1758 6.70065 10.1364 8.41853 8.41847C10.1364 6.70059 12.1758 5.33789 14.4204 4.40818C16.6649 3.47847 19.0706 2.99995 21.5 2.99995C23.9295 2.99995 26.3351 3.47847 28.5797 4.40819C30.8242 5.3379 32.8636 6.7006 34.5815 8.41849C36.2994 10.1364 37.6621 12.1758 38.5918 14.4203C39.5215 16.6648 40 19.0705 40 21.5L40 21.5Z" stroke="#F2B5AA" stroke-width="5"/>
<path d="M19.7488 22.13C19.7488 21.5533 19.8521 21.1016 20.0588 20.775C20.2688 20.4483 20.6155 20.285 21.0988 20.285C21.5821 20.285 21.9271 20.4483 22.1338 20.775C22.3438 21.1016 22.4488 21.5533 22.4488 22.13C22.4488 22.71 22.3438 23.165 22.1338 23.495C21.9271 23.825 21.5821 23.99 21.0988 23.99C20.6155 23.99 20.2688 23.825 20.0588 23.495C19.8521 23.165 19.7488 22.71 19.7488 22.13ZM21.7588 22.13C21.7588 21.8833 21.7421 21.6766 21.7088 21.51C21.6788 21.34 21.6155 21.2016 21.5188 21.095C21.4255 20.9883 21.2855 20.935 21.0988 20.935C20.9121 20.935 20.7705 20.9883 20.6738 21.095C20.5805 21.2016 20.5171 21.34 20.4838 21.51C20.4538 21.6766 20.4388 21.8833 20.4388 22.13C20.4388 22.3833 20.4538 22.5966 20.4838 22.77C20.5138 22.94 20.5771 23.0783 20.6738 23.185C20.7705 23.2883 20.9121 23.34 21.0988 23.34C21.2855 23.34 21.4271 23.2883 21.5238 23.185C21.6205 23.0783 21.6838 22.94 21.7138 22.77C21.7438 22.5966 21.7588 22.3833 21.7588 22.13Z" fill="#F1351B"/>
</svg>
