<svg width="91" height="26" viewBox="0 0 91 26" fill="none" xmlns="http://www.w3.org/2000/svg">
<path d="M5.922 20.512H13.538V25H0.108V1.132H5.922V20.512ZM26.9191 25.238C24.6751 25.238 22.6125 24.7167 20.7311 23.674C18.8725 22.6313 17.3878 21.1807 16.2771 19.322C15.1891 17.4407 14.6451 15.3327 14.6451 12.998C14.6451 10.6633 15.1891 8.56667 16.2771 6.708C17.3878 4.84933 18.8725 3.39867 20.7311 2.356C22.6125 1.31333 24.6751 0.792 26.9191 0.792C29.1631 0.792 31.2145 1.31333 33.0731 2.356C34.9545 3.39867 36.4278 4.84933 37.4931 6.708C38.5811 8.56667 39.1251 10.6633 39.1251 12.998C39.1251 15.3327 38.5811 17.4407 37.4931 19.322C36.4051 21.1807 34.9318 22.6313 33.0731 23.674C31.2145 24.7167 29.1631 25.238 26.9191 25.238ZM26.9191 19.934C28.8231 19.934 30.3418 19.2993 31.4751 18.03C32.6311 16.7607 33.2091 15.0833 33.2091 12.998C33.2091 10.89 32.6311 9.21267 31.4751 7.966C30.3418 6.69667 28.8231 6.062 26.9191 6.062C24.9925 6.062 23.4511 6.68533 22.2951 7.932C21.1618 9.17867 20.5951 10.8673 20.5951 12.998C20.5951 15.106 21.1618 16.7947 22.2951 18.064C23.4511 19.3107 24.9925 19.934 26.9191 19.934ZM57.5236 8.68C57.093 7.88667 56.4696 7.286 55.6536 6.878C54.8603 6.44733 53.9196 6.232 52.8316 6.232C50.9503 6.232 49.443 6.85533 48.3096 8.102C47.1763 9.326 46.6096 10.9693 46.6096 13.032C46.6096 15.2307 47.199 16.9533 48.3776 18.2C49.579 19.424 51.2223 20.036 53.3076 20.036C54.7356 20.036 55.937 19.6733 56.9116 18.948C57.909 18.2227 58.6343 17.18 59.0876 15.82H51.7096V11.536H64.3576V16.942C63.927 18.3927 63.1903 19.7413 62.1476 20.988C61.1276 22.2347 59.8243 23.2433 58.2376 24.014C56.651 24.7847 54.8603 25.17 52.8656 25.17C50.5083 25.17 48.4003 24.66 46.5416 23.64C44.7056 22.5973 43.2663 21.158 42.2236 19.322C41.2036 17.486 40.6936 15.3893 40.6936 13.032C40.6936 10.6747 41.2036 8.578 42.2236 6.742C43.2663 4.88333 44.7056 3.444 46.5416 2.424C48.3776 1.38133 50.4743 0.859999 52.8316 0.859999C55.6876 0.859999 58.0903 1.55133 60.0396 2.934C62.0116 4.31667 63.315 6.232 63.9496 8.68H57.5236ZM78.1861 25.238C75.9421 25.238 73.8794 24.7167 71.9981 23.674C70.1394 22.6313 68.6547 21.1807 67.5441 19.322C66.4561 17.4407 65.9121 15.3327 65.9121 12.998C65.9121 10.6633 66.4561 8.56667 67.5441 6.708C68.6547 4.84933 70.1394 3.39867 71.9981 2.356C73.8794 1.31333 75.9421 0.792 78.1861 0.792C80.4301 0.792 82.4814 1.31333 84.3401 2.356C86.2214 3.39867 87.6947 4.84933 88.7601 6.708C89.8481 8.56667 90.3921 10.6633 90.3921 12.998C90.3921 15.3327 89.8481 17.4407 88.7601 19.322C87.6721 21.1807 86.1987 22.6313 84.3401 23.674C82.4814 24.7167 80.4301 25.238 78.1861 25.238ZM78.1861 19.934C80.0901 19.934 81.6087 19.2993 82.7421 18.03C83.8981 16.7607 84.4761 15.0833 84.4761 12.998C84.4761 10.89 83.8981 9.21267 82.7421 7.966C81.6087 6.69667 80.0901 6.062 78.1861 6.062C76.2594 6.062 74.7181 6.68533 73.5621 7.932C72.4287 9.17867 71.8621 10.8673 71.8621 12.998C71.8621 15.106 72.4287 16.7947 73.5621 18.064C74.7181 19.3107 76.2594 19.934 78.1861 19.934Z" fill="#2B2D42"/>
</svg>
