<svg width="33" height="33" viewBox="0 0 33 33" fill="none" xmlns="http://www.w3.org/2000/svg">
<circle cx="16.5" cy="16.5" r="16" fill="#DEDEDE"/>
<path d="M11.58 12.762C11.664 11.658 12.09 10.794 12.858 10.17C13.626 9.546 14.622 9.234 15.846 9.234C16.662 9.234 17.364 9.384 17.952 9.684C18.552 9.972 19.002 10.368 19.302 10.872C19.614 11.376 19.77 11.946 19.77 12.582C19.77 13.326 19.554 13.968 19.122 14.508C18.702 15.048 18.15 15.396 17.466 15.552V15.642C18.246 15.834 18.864 16.212 19.32 16.776C19.776 17.34 20.004 18.078 20.004 18.99C20.004 19.674 19.848 20.292 19.536 20.844C19.224 21.384 18.756 21.81 18.132 22.122C17.508 22.434 16.758 22.59 15.882 22.59C14.61 22.59 13.566 22.26 12.75 21.6C11.934 20.928 11.478 19.98 11.382 18.756H12.966C13.05 19.476 13.344 20.064 13.848 20.52C14.352 20.976 15.024 21.204 15.864 21.204C16.704 21.204 17.34 20.988 17.772 20.556C18.216 20.112 18.438 19.542 18.438 18.846C18.438 17.946 18.138 17.298 17.538 16.902C16.938 16.506 16.032 16.308 14.82 16.308H14.406V14.94H14.838C15.942 14.928 16.776 14.748 17.34 14.4C17.904 14.04 18.186 13.488 18.186 12.744C18.186 12.108 17.976 11.598 17.556 11.214C17.148 10.83 16.56 10.638 15.792 10.638C15.048 10.638 14.448 10.83 13.992 11.214C13.536 11.598 13.266 12.114 13.182 12.762H11.58Z" fill="#2B2D42"/>
</svg>
